<svg xmlns="http://www.w3.org/2000/svg" viewBox="10086 10 40 40">
  <defs>
    <style>
      .cls-1 {
        fill: #00a7ff;
      }
    </style>
  </defs>
  <path id="Path_1" data-name="Path 1" class="cls-1" d="M37.39,9.99c-.12-.2-.2-.36-.321-.559a19.845,19.845,0,0,0-5.21-5.594c-.521-.36-1.042-.719-1.6-1.079-.2-.12-.4-.24-.561-.32A20.536,20.536,0,0,0,20.118,0h-.2a19.518,19.518,0,0,0-10.1,2.8A20.143,20.143,0,0,0,2.685,9.99a19.927,19.927,0,0,0,0,19.98l.281.519h0A20.183,20.183,0,0,0,8.3,36.2c.481.36,1,.679,1.523,1,.4.24.761.44,1.162.639A20.311,20.311,0,0,0,19.917,40h.16a19.713,19.713,0,0,0,5.891-.919A18.049,18.049,0,0,0,30.177,37.2a22.055,22.055,0,0,0,2-1.359A19.985,19.985,0,0,0,37.03,30.49h0l.281-.519c.12-.2.2-.36.321-.559a20.311,20.311,0,0,0,2.284-7.433A16,16,0,0,0,40,20.02,19.052,19.052,0,0,0,37.39,9.99Zm.641,8.991H32.421a21.553,21.553,0,0,0-1.643-7.473h5.13A17.873,17.873,0,0,1,38.031,18.981ZM21.04,2.717a21.477,21.477,0,0,1,6.532,6.753H21.04Zm-2,6.753H12.5a20.656,20.656,0,0,1,6.532-6.753ZM15.95,2.478a22.47,22.47,0,0,0-5.731,6.993H5.41A18.3,18.3,0,0,1,15.95,2.478Zm3.086,9.031v7.473H9.658a20.057,20.057,0,0,1,1.8-7.473Zm0,9.471v7.473H11.462a20.057,20.057,0,0,1-1.8-7.473Zm0,9.51v6.753A21.051,21.051,0,0,1,12.5,30.49Zm2,0h6.532a20.656,20.656,0,0,1-6.532,6.753Zm3.086,6.993a22.47,22.47,0,0,0,5.731-6.993h4.809A18.3,18.3,0,0,1,24.125,37.483ZM21.04,28.452V20.979h9.378a20.057,20.057,0,0,1-1.8,7.473Zm0-9.471V11.508h7.574a20.057,20.057,0,0,1,1.8,7.473ZM30.056,5.075c.481.32.962.679,1.4,1.039a18.437,18.437,0,0,1,3.206,3.4H29.856a22.174,22.174,0,0,0-5.731-7.033,18.132,18.132,0,0,1,5.45,2.278A3.344,3.344,0,0,1,30.056,5.075ZM4.128,11.508h5.13a22.724,22.724,0,0,0-1.643,7.473H2.044A18.438,18.438,0,0,1,4.128,11.508ZM2.044,20.979h5.57a21.553,21.553,0,0,0,1.643,7.473H4.128a17.1,17.1,0,0,1-1.643-4.4c-.04-.12-.04-.24-.08-.4-.04-.12-.04-.24-.08-.36a19.364,19.364,0,0,1-.281-2.2S2.044,21.019,2.044,20.979Zm8.937,14.545A18.707,18.707,0,0,1,5.37,30.49h4.809a23.17,23.17,0,0,0,5.771,6.993,22.085,22.085,0,0,1-2.885-.919c-.361-.16-.721-.32-1.042-.48C11.662,35.884,11.341,35.724,10.981,35.524Zm24.967-7.073h-5.13a22.724,22.724,0,0,0,1.643-7.473h5.611A19.14,19.14,0,0,1,35.948,28.452Z" transform="translate(10086 10)"/>
</svg>
